<svg xmlns="http://www.w3.org/2000/svg" xmlns:xlink="http://www.w3.org/1999/xlink" width="1011" height="638" viewBox="0 0 1011 638" role="img" aria-labelledby="title desc">
  <title id="title">UČFR členský průkaz</title>
  <desc id="desc">CR80 členský průkaz Unie českých fotbalových rozhodčích</desc>
  <defs>
    <clipPath id="cardClip">
      <rect width="1011" height="638" rx="38" ry="38"/>
    </clipPath>
    <linearGradient id="navyGradient" x1="0" y1="0" x2="1" y2="1">
      <stop offset="0" stop-color="#082f6d"/>
      <stop offset="1" stop-color="#0b4ea2"/>
    </linearGradient>
    <filter id="shadow" x="-15%" y="-15%" width="130%" height="130%">
      <feDropShadow dx="0" dy="8" stdDeviation="10" flood-color="#081c3a" flood-opacity="0.2"/>
    </filter>
    <clipPath id="logoInnerClip">
      <circle cx="256" cy="256" r="184"/>
    </clipPath>
  </defs>

  <g filter="url(#shadow)">
    <rect width="1011" height="638" rx="38" fill="#ffffff"/>
  </g>

  <g clip-path="url(#cardClip)">
    <rect width="1011" height="286" fill="url(#navyGradient)"/>

    <g opacity="0.12" fill="none" stroke="#ffffff" stroke-width="3">
      <path d="M-40 76 C160 10 270 154 470 82 S780 24 1060 112"/>
      <path d="M-55 126 C165 60 295 194 486 130 S785 74 1065 160"/>
      <path d="M-60 184 C155 116 306 242 500 182 S802 130 1075 214"/>
      <path d="M-50 236 C158 174 320 288 518 232 S824 190 1074 264"/>
    </g>

    <polygon points="0,278 1011,238 1011,286 0,326" fill="#ffffff" opacity="0.94"/>
    <polygon points="0,286 1011,246 1011,258 0,298" fill="#d71920"/>
    <polygon points="0,298 1011,258 1011,266 0,306" fill="#ffffff"/>
    <polygon points="0,306 1011,266 1011,274 0,314" fill="#1c5aa6"/>

    <g transform="translate(42 38) scale(0.28515625)">
      <circle cx="256" cy="256" r="242" fill="#082f6d"/>
      <circle cx="256" cy="256" r="214" fill="#ffffff" stroke="#dce5f1" stroke-width="8"/>
      <g clip-path="url(#logoInnerClip)">
        <rect x="72" y="72" width="368" height="368" fill="#ffffff"/>
        <path d="M50 364 L462 196 L462 266 L50 434 Z" fill="#d71920"/>
        <path d="M50 320 L462 152 L462 202 L50 370 Z" fill="#1c5aa6"/>
        <path d="M50 290 L462 122 L462 152 L50 320 Z" fill="#ffffff"/>
      </g>
      <g transform="translate(256 216)">
        <circle r="104" fill="#ffffff" stroke="#0b2a55" stroke-width="10"/>
        <path d="M0-48 46-15 29 39-29 39-46-15Z" fill="#0b2a55"/>
        <path d="M0-98 0-48M93-30 46-15M58 80 29 39M-58 80-29 39M-93-30-46-15" fill="none" stroke="#0b2a55" stroke-width="10" stroke-linecap="round"/>
        <path d="M0-98 55-80 93-30 88 31 58 80 0 101-58 80-88 31-93-30-55-80Z" fill="none" stroke="#0b2a55" stroke-width="8" stroke-linejoin="round"/>
      </g>
      <rect x="87" y="354" width="338" height="96" rx="48" fill="#ffffff" stroke="#0b2a55" stroke-width="8"/>
      <text x="256" y="421" text-anchor="middle" fill="#0b2a55" font-family="Montserrat, Arial, sans-serif" font-size="76" font-weight="800" letter-spacing="3">UČFR</text>
    </g>

    <text x="216" y="105" fill="#ffffff" font-family="Montserrat, Arial, sans-serif" font-size="86" font-weight="800" letter-spacing="2">UČFR</text>
    <text x="220" y="151" fill="#ffffff" font-family="Montserrat, Arial, sans-serif" font-size="24" font-weight="700" letter-spacing="1.5">UNIE ČESKÝCH</text>
    <text x="220" y="185" fill="#ffffff" font-family="Montserrat, Arial, sans-serif" font-size="24" font-weight="700" letter-spacing="1.15">FOTBALOVÝCH ROZHODČÍCH</text>
    <rect x="220" y="207" width="66" height="7" rx="3.5" fill="#ffffff"/>
    <rect x="292" y="207" width="66" height="7" rx="3.5" fill="#d71920"/>
    <rect x="364" y="207" width="66" height="7" rx="3.5" fill="#2c73c5"/>

    <text x="54" y="358" fill="#0a3979" font-family="Montserrat, Arial, sans-serif" font-size="31" font-weight="800" letter-spacing="1.1">ČLENSKÝ PRŮKAZ</text>

    <text x="54" y="407" fill="#4771a7" font-family="Inter, Arial, sans-serif" font-size="15" font-weight="700" letter-spacing="1.5">JMÉNO A PŘÍJMENÍ</text>
    <text x="54" y="456" fill="#102f5b" font-family="Montserrat, Arial, sans-serif" font-size="{{NAME_FONT_SIZE}}" font-weight="800">{{NAME}}</text>
    <line x1="54" y1="474" x2="646" y2="474" stroke="#d6dfeb" stroke-width="2"/>

    <text x="54" y="511" fill="#4771a7" font-family="Inter, Arial, sans-serif" font-size="15" font-weight="700" letter-spacing="1.5">ČLENSKÉ ID</text>
    <text x="54" y="548" fill="#102f5b" font-family="Montserrat, Arial, sans-serif" font-size="27" font-weight="800" letter-spacing="0.7">{{CARD_NUMBER}}</text>

    <text x="377" y="511" fill="#4771a7" font-family="Inter, Arial, sans-serif" font-size="15" font-weight="700" letter-spacing="1.5">STATUS</text>
    <circle cx="388" cy="542" r="8" fill="{{STATUS_COLOR}}"/>
    <text x="406" y="550" fill="{{STATUS_COLOR}}" font-family="Montserrat, Arial, sans-serif" font-size="24" font-weight="800">{{STATUS}}</text>

    <rect x="713" y="337" width="244" height="244" rx="24" fill="#ffffff" stroke="#d9e2ed" stroke-width="3"/>
    <image href="{{QR}}" x="731" y="355" width="208" height="208" preserveAspectRatio="xMidYMid meet"/>
    <text x="835" y="603" text-anchor="middle" fill="#6c809a" font-family="Inter, Arial, sans-serif" font-size="12" font-weight="600" letter-spacing="0.9">OVĚŘENÍ ČLENSTVÍ</text>

    <text x="54" y="607" fill="#8a9aaf" font-family="Inter, Arial, sans-serif" font-size="11" font-weight="600" letter-spacing="0.6">UNIE ČESKÝCH FOTBALOVÝCH ROZHODČÍCH • {{ISSUED}}</text>
  </g>

  <rect x="1.5" y="1.5" width="1008" height="635" rx="36.5" fill="none" stroke="#dce3ed" stroke-width="3"/>
</svg>
