<svg xmlns="http://www.w3.org/2000/svg" viewBox="0 0 600 800" role="img" aria-labelledby="title desc">
  <title id="title">Znak UČFR</title>
  <desc id="desc">Znak Unie českých fotbalových rozhodčích se státními barvami, píšťalkou a fotbalovým míčem.</desc>
  <defs>
    <clipPath id="fieldClip">
      <path d="M300 82 494 138v240c0 160-71 264-194 326-123-62-194-166-194-326V138Z"/>
    </clipPath>
  </defs>

  <path d="M300 20 550 100v290c0 200-95 325-250 400C145 715 50 590 50 390V100Z" fill="#0a2f5a"/>
  <path d="M300 45 528 115v270c0 183-85 302-228 373C157 687 72 568 72 385V115Z" fill="#ffffff"/>
  <path d="M300 64 512 126v256c0 171-78 280-212 348C166 662 88 553 88 382V126Z" fill="#0a2f5a"/>
  <path d="M300 82 494 138v240c0 160-71 264-194 326-123-62-194-166-194-326V138Z" fill="#ffffff"/>

  <g clip-path="url(#fieldClip)">
    <path d="M80 130 300 66 520 130 300 330Z" fill="#1859a9"/>
    <path d="M300 330 520 118v570L300 735Z" fill="#d8202a"/>
  </g>

  <g stroke="#ffffff" stroke-linejoin="round">
    <circle cx="423" cy="296" r="27" fill="#0a2f5a" stroke-width="9"/>
    <circle cx="423" cy="296" r="9" fill="none" stroke-width="6"/>
    <path d="M151 376 294 286 383 347 238 459Z" fill="#0a2f5a" stroke-width="10"/>
    <path d="M151 376 196 408v48l-45-34Z" fill="#0a2f5a" stroke-width="9"/>
    <path d="M218 340 260 313 296 338 252 366Z" fill="#0a2f5a" stroke-width="8"/>
    <circle cx="387" cy="355" r="78" fill="#0a2f5a" stroke-width="11"/>
    <path d="M420 302c-33 4-55 31-57 62-2 34 17 64 50 72" fill="none" stroke-width="9" stroke-linecap="round"/>
  </g>

  <g transform="translate(300 588)">
    <circle r="72" fill="#ffffff" stroke="#0a2f5a" stroke-width="10"/>
    <path d="m0-29 28 20-11 33h-34L-28-9Z" fill="#0a2f5a"/>
    <path d="M0-67 0-29M64-21 28-9M40 55 17 24M-40 55-17 24M-64-21-28-9" fill="none" stroke="#0a2f5a" stroke-width="8" stroke-linecap="round"/>
    <path d="M0-67 40-55 64-21 61 24 40 55 0 68-40 55-61 24-64-21-40-55Z" fill="none" stroke="#0a2f5a" stroke-width="6" stroke-linejoin="round"/>
  </g>
</svg>
